<?xml version="1.0" encoding="UTF-8"?> <svg xmlns="http://www.w3.org/2000/svg" viewBox="0 0 500.5 70.1"><path d="m86.7 17.1c-1.3 0-25.6 1.6-25.6 1.6v11.7l25.8-1.1c1.4.1 3.1.9 3.1 2.5v5.2l-21.5-.1c-14.1.2-19.1 33.9 4.5 32.4 7.3-.4 16.7-4.3 18-6 .2 1.6.8 5.2.8 5.2h14.2v-32.5c0-7.4 2.7-18.9-19.3-18.9zm3.2 31.1v6.2s-12.7 2.3-14.8 1.8c-1.4-.3-2.4-1.4-2.5-3.1 0-5.7 3.6-4.8 4.8-4.9z" fill="#f99f33"></path><path d="m358 17.4c-1.3 0-25.6 1.6-25.6 1.6v11.7l25.8-1.1c1.4.1 3.1.9 3.1 2.5v5.2l-21.5-.2c-14.1.2-19.1 33.9 4.6 32.5 7.3-.4 16.7-4.3 18-6 .2 1.6.8 5.2.8 5.2h14.2v-32.5c0-7.3 2.6-18.9-19.4-18.9zm3.2 31.1v6.2s-12.7 2.3-14.8 1.8c-1.4-.3-2.4-1.4-2.5-3.1 0-5.7 3.6-4.8 4.8-4.9zm46-16.7 22.9.1v-12.9l-12.6-.3h-12.4c-7.3 0-12.6 1-15.6 4.1-3.1 3.1-4.4 8.3-4.4 14.4v13.9c0 8.5 1.1 11.5 4.2 14.6 3.1 3.2 8.5 4.1 15.8 4.1 2 0 22.6-1.3 24.5-1.5l.1-12.2c-4.1.3-24.3 2.2-27.1 1-.7-.3-1.8-1.5-1.9-3.8v-16.3c0-5.6 4.8-5.2 6.5-5.2z" fill="#505054"></path><path d="m112.4 31.8v-12.3h5.4l1.7-11.6h14.4v11.6h12.2v11.8h-12.3v19.6c0 6.4 4.1 6 7.8 6l8.2-.1v12.2c-2.4.8-22.2 2.7-27.6-2.3-2.2-2-4.2-4.3-4.2-13l.2-21.9zm39.3 0v-12.3h5.4l1.7-11.6h14.3v11.6h12.2v11.8h-12.3v19.6c0 6.4 4.1 6 7.8 6l8.2-.1v12.2c-2.4.8-22.2 2.7-27.6-2.3-2.2-2-4.2-4.3-4.2-13l.2-21.9zm58.9 21.5c0 .9.1 4.3 4.6 4.3h4l.2 11.5c-9.6 1.9-14.9.6-17.2 0s-4.3-2.1-5.4-3.2c-1.2-1.2-1.9-2.6-2.2-4.3s-.5-3.5-.5-5.5v-52.7h16.5z" fill="#f99f33"></path><path d="m310.4 34.7.1 33.9h-16.1l.2-34h-6.2v-11.7h6.1v-7.6c0-2.3.1-14 16.5-13.6l9.7.5 9.8.7v11.5l-15.3-.9c-2.8 0-4.8 1.3-4.8 3.8v5.7h15v11.6z" fill="#505054"></path><path d="m273.9 29.1c0-3.3-1.9-10.3-11.9-10.3h-24.1c-7.3 0-12.4 6.7-12.4 12.1v26.8c0 12.2 12.9 12.2 20.2 12.2 2 0 24.9-1.3 26.9-1.5v-11.8c-4.4.1-19.5 1.5-23.9 1.5-1.9 0-3.3-.1-4.5-.3-2.8-.4-2.4-5.5-2.4-7.1h32.1c0 .1-.1-16.1 0-21.6zm-16 10.3h-16.4v-6.9c.2-2.6 2.4-2.3 4.1-2.3h10.4c1.6 0 1.9 1.9 1.9 2.8z" fill="#f99f33"></path><path d="m485.4 28.2s-1.6-7.4-8.7-9.7c-.9-.5-4.5-.7-4.5-.7h-2.5-20.2c-7.3 0-12.4 6.7-12.4 12.1v26.9c0 12.2 12.9 12.2 20.2 12.2 2 0 24.9-1.3 26.9-1.5v-11.8c-4.4.1-19.5 1.5-23.9 1.5-1.9 0-3.4-.3-4.5-.3-2.8 0-2.2-5.5-2.2-7.1h31.9zm-16 10.3h-16.3v-6.9c.2-2.6 2.4-2.3 4.1-2.3h10.4c1.6 0 1.9 1.9 1.9 2.8-.1 1.5-.1 6.4-.1 6.4z" fill="#505054"></path><path d="m35.8 68.6c9 0 14.3-5.9 14.3-16.6v-13.4c-.6-5.7 4.8-27.3-33.4-18.8v-17.5h-16.7v66.2zm-19.4-37.1c3.3-.9 14.9-1.3 15.9-.8.7.3 1.2 1 1.3 1.9v19.2c0 3-2.2 4.2-4.3 4.2h-12.9z" fill="#f99f33"></path></svg> 