<svg xmlns="http://www.w3.org/2000/svg" id="Layer_1" data-name="Layer 1" viewBox="0 0 216 60.8"><defs><style>.cls-1{fill:#63f;}</style></defs><title>cota-logo-wht-rgb</title><path class="cls-1" d="M192.84,1.41H180.41L156.13,60.59h12.76l4.46-11.52h26.42l4.46,11.52H217Zm-15.35,36.7L186.57,15l9,23.15Z" transform="translate(-1 -0.6)"></path><polygon class="cls-1" points="160.76 0.81 116.59 0.81 116.59 11.9 133.12 11.9 133.12 59.98 144.16 59.98 144.16 11.9 160.76 11.9 160.76 0.81"></polygon><path class="cls-1" d="M55.38,31A30.28,30.28,0,1,1,85.62,61.4,30.27,30.27,0,0,1,55.38,31Zm49.37,0A19.09,19.09,0,1,0,85.62,50.29,19.2,19.2,0,0,0,104.75,31Z" transform="translate(-1 -0.6)"></path><path class="cls-1" d="M31.15,50.13A18.77,18.77,0,0,1,12.19,31,18.87,18.87,0,0,1,31.4,11.71a16.78,16.78,0,0,1,13.36,5.93L52.9,9.5A30,30,0,0,0,31.4.6C14.29.6,1,13.33,1,31,1,47.86,13.08,61.4,31.4,61.4a29.37,29.37,0,0,0,21.29-9.11l-8.09-8.09A17.5,17.5,0,0,1,31.15,50.13Z" transform="translate(-1 -0.6)"></path></svg>